<svg xmlns="http://www.w3.org/2000/svg" viewBox="0 0 64 64">
<defs><linearGradient id="g" x1="0" y1="0" x2="1" y2="1"><stop stop-color="#865cff"/><stop offset="1" stop-color="#4e6ee8"/></linearGradient></defs>
<rect width="64" height="64" rx="16" fill="#080c1c"/>
<rect x="12" y="12" width="40" height="40" rx="13" fill="url(#g)"/>
<path d="M21 26h23a4 4 0 0 1 4 4v13a4 4 0 0 1-4 4H21a4 4 0 0 1-4-4V29a3 3 0 0 1 3-3l21-4" fill="none" stroke="#fff" stroke-width="3" stroke-linecap="round" stroke-linejoin="round"/>
<path d="M38 32h10v8H38a4 4 0 0 1 0-8Z" fill="#fff"/>
</svg>